<?xml version="1.0" encoding="UTF-8"?>
<svg width="412.5" height="197.75" viewBox="0 0 412.5 197.75" xmlns="http://www.w3.org/2000/svg" xmlns:xlink="http://www.w3.org/1999/xlink">
    <style>
        rect, polygon, circle {
            fill: #ffffff;
            stroke: #ff0000;
            stroke-width: 1.5px;
        }
        polyline {
            stroke: #ff0000;
            stroke-width: 1.25px;
        }
    </style>
    <g transform="translate(-220 -419)">		<polygon points="240,443 240,446 602.5,488 602.5,485" />
		<polygon points="240,495 240,498 602.5,498 602.5,495" />
		<polygon points="240,567 240,570 602.5,522.5 602.5,519.5" />
		<polygon points="240,506.5 240,509.5 602.5,509.5 602.5,506.5" />
		<rect x="240" y="530" width="5" height="20" style="stroke-width: 1.25px;" />
		<polyline points="245,535 602.5,509.5" />
		<polyline points="245,545 602.5,519.5" />
		<rect x="240" y="460.5" width="5" height="20" style="stroke-width: 1.25px;" />
		<polyline points="245,465.5 572.25,484.75" />
		<polyline points="572.25,484.75 602.5,488" />
		<polyline points="245,475.5 572.25,494.75" />
		<polyline points="572.25,494.75 602.5,495" />

		<rect x="250.0" y="500" width="10" height="80" />
		<rect x="263.5" y="500" width="10" height="78" />
		<rect x="277.0" y="500" width="10" height="76" />
		<rect x="290.5" y="500" width="10" height="74" />
		<rect x="304.0" y="500" width="10" height="72" />
		<rect x="317.5" y="500" width="10" height="70" />
		<rect x="331.0" y="500" width="10" height="68" />
		<rect x="344.5" y="500" width="10" height="66" />
		<rect x="358.0" y="500" width="10" height="64" />
		<rect x="371.5" y="500" width="10" height="62" />
		<rect x="385.0" y="500" width="10" height="60" />
		<rect x="398.5" y="500" width="10" height="58" />
		<rect x="412.0" y="500" width="10" height="56" />
		<rect x="425.5" y="500" width="10" height="54" />
		<rect x="439.0" y="500" width="10" height="52" />
		<rect x="452.5" y="500" width="10" height="50" />
		<rect x="466.0" y="500" width="10" height="48" />
		<rect x="479.5" y="500" width="10" height="46" />
		<rect x="493.0" y="500" width="10" height="44" />
		<rect x="506.5" y="500" width="10" height="42" />
		<rect x="520.0" y="500" width="10" height="40" />
		<rect x="533.5" y="500" width="10" height="38" />
		<rect x="547.0" y="500" width="10" height="36" />
		<rect x="560.5" y="500" width="10" height="34" />
		<rect x="574.0" y="500" width="10" height="32" />
		<rect x="587.5" y="500" width="10" height="30" />

		<rect x="256.75" y="429" width="10" height="79" />
		<rect x="270.25" y="431" width="10" height="77" />
		<rect x="283.75" y="433" width="10" height="75" />
		<rect x="310.75" y="437" width="10" height="71" />
		<rect x="324.25" y="439" width="10" height="69" />
		<rect x="351.25" y="443" width="10" height="65" />
		<rect x="364.75" y="445" width="10" height="63" />
		<rect x="378.25" y="447" width="10" height="61" />
		<rect x="405.25" y="451" width="10" height="57" />
		<rect x="418.75" y="453" width="10" height="55" />
		<rect x="445.75" y="457" width="10" height="51" />
		<rect x="459.25" y="459" width="10" height="49" />
		<rect x="472.75" y="461" width="10" height="47" />
		<rect x="499.75" y="465" width="10" height="43" />
		<rect x="513.25" y="467" width="10" height="41" />
		<rect x="540.25" y="471" width="10" height="37" />
		<rect x="553.75" y="473" width="10" height="35" />
		<rect x="567.25" y="475" width="10" height="33" />

		<rect x="230" y="433" width="10" style="fill:#ff0000" height="157" />
		<rect x="602.5" y="480" width="10" style="fill:#ff0000" height="52.5" />
		<polyline points="230,498.5 240,498.5" />
		<polyline points="602.5,498.5 612.5,498.5" />

		<rect x="368.75" y="590" width="100" style="fill:#ff0000" height="2.5" />
		<circle cx="468.75" cy="591.25" r="5" />		<rect x="368.75" y="600" width="100" style="fill:#ff0000" height="2.5" />
		<circle cx="468.75" cy="601.25" r="5" /></g></svg>